<?xml version="1.0" encoding="utf-8"?>
<!-- Generator: Adobe Illustrator 23.0.6, SVG Export Plug-In . SVG Version: 6.00 Build 0)  -->
<svg version="1.1" id="Layer_1" xmlns="http://www.w3.org/2000/svg" xmlns:xlink="http://www.w3.org/1999/xlink" x="0px" y="0px"
	 viewBox="0 0 510.6 227.1" style="enable-background:new 0 0 510.6 227.1;" xml:space="preserve">
<style type="text/css">
	.st0{fill:none;stroke:#0000FF;stroke-width:0.38;}
	.st1{fill:#00FF00;}
	.st2{fill:none;stroke:#00FF00;stroke-width:0.38;}
</style>
<title>poofer transmitter control surface</title>
<path id="dAaFdfK1j" class="st0" d="M0.2,0.2h510.2V227H0.2V0.2z"/>
<path id="c9c5ZKLty" class="st0" d="M273.7,168.9c0,10.2-8.3,18.4-18.4,18.4c-10.2,0-18.4-8.3-18.4-18.4c0-10.2,8.3-18.4,18.4-18.4
	l0,0C265.5,150.4,273.7,158.7,273.7,168.9z"/>
<path id="c57gX4JNEB" class="st0" d="M473.6,113.6c0,3.1-2.5,5.7-5.7,5.7c-3.1,0-5.7-2.5-5.7-5.7c0-3.1,2.5-5.7,5.7-5.7
	C471,107.9,473.6,110.4,473.6,113.6L473.6,113.6z"/>
<path id="c3bpDgNXkH" class="st0" d="M48.4,113.6c0,3.1-2.5,5.7-5.7,5.7s-5.7-2.5-5.7-5.7c0-3.1,2.5-5.7,5.7-5.7l0,0
	C45.8,107.9,48.4,110.4,48.4,113.6z"/>
<path id="c6SIaK64P" class="st0" d="M107.9,56.9c0,4.7-3.8,8.5-8.5,8.5s-8.5-3.8-8.5-8.5s3.8-8.5,8.5-8.5l0,0
	C104.1,48.4,107.9,52.2,107.9,56.9z"/>
<path id="b7A0XnFll" class="st0" d="M48.4,156.1c0,3.1-2.5,5.7-5.7,5.7s-5.7-2.5-5.7-5.7c0-3.1,2.5-5.7,5.7-5.7l0,0
	C45.8,150.4,48.4,153,48.4,156.1z"/>
<g>
	<path class="st1" d="M310.3,132.7l-1.6,4.9h-2.1l5.3-15.7h2.4l5.4,15.7h-2.2l-1.7-4.9H310.3z M315.5,131.1l-1.5-4.5
		c-0.4-1-0.6-2-0.8-2.9l0,0c-0.2,0.9-0.5,1.9-0.8,2.8l-1.5,4.5h4.6L315.5,131.1L315.5,131.1z"/>
</g>
<g>
	<path class="st1" d="M307.8,87.2c1.2-0.2,2.5-0.3,3.7-0.3c1.5-0.1,3,0.3,4.3,1.1c0.9,0.7,1.4,1.7,1.3,2.8c-0.1,1.6-1.1,3-2.6,3.4
		l0,0c1.9,0.4,3.2,2,3.2,3.9c0,1.2-0.5,2.3-1.3,3.1c-1.1,1-2.9,1.5-5.4,1.5c-1,0-2.1-0.1-3.1-0.2L307.8,87.2z M309.8,93.6h1.8
		c2.1,0,3.4-1.1,3.4-2.6c0-1.8-1.4-2.6-3.4-2.6c-0.6,0-1.2,0-1.8,0.1V93.6z M309.8,101.1c0.6,0.1,1.1,0.1,1.7,0.1c2.1,0,4-0.8,4-3
		s-1.8-3-4-3h-1.7V101.1z"/>
</g>
<path id="cvd09zsaq" class="st2" d="M462.2,167v-34.2H329.1"/>
<path id="a2qxn9LkJa" class="st2" d="M163.1,167v-34.2h133.1"/>
<path id="a1DRlomI6I" class="st2" d="M462.2,58.9v34.2H329.1"/>
<path id="gX17LvPTs" class="st2" d="M163.1,58.9v34.2h133.1"/>
<path class="st1" d="M23.3,60.6c-0.6,0.2-1.2,0.4-1.9,0.3c-1.8,0.1-3.4-1.3-3.5-3.1c0-0.2,0-0.3,0-0.5c-0.1-1.9,1.4-3.6,3.3-3.7
	c0.1,0,0.2,0,0.4,0c0.6,0,1.2,0.1,1.7,0.3l-0.2,0.8c-0.4-0.2-0.9-0.3-1.4-0.3c-1.5-0.1-2.7,1.1-2.7,2.5c0,0.1,0,0.3,0,0.4
	c-0.2,1.4,0.9,2.7,2.3,2.8c0.1,0,0.3,0,0.5,0c0.5,0,1-0.1,1.5-0.3L23.3,60.6z"/>
<path class="st1" d="M26.7,53.8c0.6-0.1,1.1-0.2,1.7-0.2c0.7-0.1,1.4,0.1,2,0.5c0.4,0.3,0.6,0.8,0.6,1.2c0,0.7-0.5,1.3-1.2,1.6l0,0
	c0.8,0.2,1.5,0.9,1.5,1.8c0,0.5-0.2,1-0.6,1.4c-0.7,0.5-1.6,0.8-2.5,0.7c-0.5,0-0.9,0-1.4-0.1L26.7,53.8z M27.6,56.7h0.8
	c1,0,1.5-0.5,1.5-1.2c0-0.8-0.6-1.2-1.6-1.2c-0.3,0-0.5,0-0.8,0.1v2.3C27.5,56.7,27.6,56.7,27.6,56.7z M27.6,60.1c0.3,0,0.5,0,0.8,0
	c1,0,1.8-0.3,1.8-1.4s-0.8-1.4-1.8-1.4h-0.8V60.1z"/>
<path class="st1" d="M36.1,57.5h-2.8v2.6h3.1v0.8h-4v-7.1h3.8v0.8h-2.9v2.2h2.8C36.1,56.8,36.1,57.5,36.1,57.5z"/>
<path class="st1" d="M38.5,53.7v3h3.4v-3h0.9v7.1h-0.9v-3.3h-3.4v3.3h-0.9v-7.1H38.5z"/>
<path class="st1" d="M45.5,58.6l-0.7,2.2h-0.9l2.4-7.1h1.1l2.4,7.1h-1L48,58.6H45.5z M47.9,57.9l-0.7-2c-0.2-0.5-0.3-0.9-0.4-1.3
	l0,0c-0.1,0.4-0.2,0.8-0.4,1.3l-0.7,2H47.9z"/>
<path class="st1" d="M51.8,60.8l-2.3-7.1h1l1.1,3.5c0.3,1,0.6,1.8,0.8,2.7l0,0c0.2-0.8,0.5-1.7,0.8-2.6l1.2-3.5h1l-2.5,7.1h-1.1
	V60.8z"/>
<path class="st1" d="M57,53.7v7.1h-0.9v-7.1H57z"/>
<path class="st1" d="M64.7,57.2c0,2.4-1.5,3.7-3.3,3.7s-3.2-1.4-3.2-3.6s1.4-3.7,3.3-3.7S64.7,55.1,64.7,57.2z M59.2,57.3
	c0,1.5,0.8,2.9,2.3,2.9s2.3-1.3,2.3-2.9c0-1.4-0.7-2.9-2.3-2.9S59.2,55.8,59.2,57.3z"/>
<path class="st1" d="M65.9,53.8c0.6-0.1,1.2-0.2,1.8-0.2c0.7-0.1,1.4,0.1,2,0.6c0.4,0.3,0.6,0.8,0.6,1.3c0,0.8-0.5,1.6-1.3,1.8l0,0
	c0.6,0.3,0.9,0.8,1,1.4c0.1,0.7,0.3,1.3,0.6,1.9h-1c-0.2-0.5-0.4-1.1-0.5-1.7c-0.2-1-0.6-1.3-1.4-1.4h-0.9v3.1H66L65.9,53.8
	L65.9,53.8z M66.8,57.1h0.9c1,0,1.6-0.5,1.6-1.3s-0.7-1.3-1.6-1.3c-0.3,0-0.6,0-0.9,0.1V57.1z"/>
<path id="a2VNK6k7RD" class="st1" d="M40.5,174.5L36,186.8h4.4l-3.2,8.9l12.1-12.3H43l4.4-8.9H40.5z"/>
<g>
	<polygon points="40.5,174.5 36,186.8 40.4,186.8 37.2,195.7 49.3,183.4 43,183.4 47.4,174.5 	"/>
	<polygon points="40.5,174.5 36,186.8 40.4,186.8 37.2,195.7 49.3,183.4 43,183.4 47.4,174.5 	"/>
</g>
<g>
	<path class="st1" d="M236.1,20c0-1-0.1-2.2-0.1-3.1l0,0c-0.2,0.8-0.5,1.7-0.9,2.7l-1.3,3.4h-0.7l-1.1-3.3c-0.3-1-0.6-1.9-0.8-2.8
		l0,0c0,0.9-0.1,2.1-0.1,3.1l-0.2,3H230l0.5-7.1h1.2l1.2,3.4c0.3,0.9,0.5,1.6,0.7,2.4l0,0c0.2-0.7,0.4-1.5,0.7-2.4l1.3-3.4h1.2
		l0.4,7.1h-0.9L236.1,20z"/>
	<path class="st1" d="M239.6,20.8l-0.7,2.2h-1l2.4-7.1h1.1l2.4,7.1h-1l-0.8-2.2H239.6z M241.9,20.1l-0.7-2c-0.1-0.5-0.3-0.9-0.4-1.3
		l0,0c-0.1,0.4-0.2,0.8-0.4,1.3l-0.7,2H241.9z"/>
	<path class="st1" d="M245.8,16v7h-0.9v-7H245.8z"/>
	<path class="st1" d="M247.4,23v-7h1l2.3,3.6c0.5,0.7,0.9,1.5,1.3,2.3l0,0c-0.1-0.9-0.1-1.8-0.1-2.9v-3h0.9v7h-0.9l-2.2-3.6
		c-0.5-0.8-0.9-1.6-1.3-2.4l0,0c0.1,0.9,0.1,1.8,0.1,2.9v3L247.4,23z"/>
	<path class="st1" d="M255.6,16.7h-2.1V16h5.2v0.8h-2.2V23h-0.9V16.7z"/>
	<path class="st1" d="M259.9,20.8l-0.7,2.2h-1l2.4-7.1h1.1l2.4,7.1h-1l-0.8-2.2H259.9z M262.2,20.1l-0.7-2c-0.2-0.5-0.3-0.9-0.4-1.3
		l0,0c-0.1,0.4-0.2,0.8-0.4,1.3l-0.7,2H262.2z"/>
	<path class="st1" d="M266.1,16v7h-0.9v-7H266.1z"/>
	<path class="st1" d="M267.7,23v-7h1l2.3,3.6c0.5,0.7,0.9,1.5,1.3,2.3l0,0c-0.1-0.9-0.1-1.8-0.1-2.9v-3h0.9v7h-0.9l-2.2-3.6
		c-0.5-0.8-0.9-1.6-1.3-2.4l0,0c0,0.9,0.1,1.8,0.1,2.9v3L267.7,23z"/>
	<path class="st1" d="M276.8,16h0.9v6.3h3V23h-3.9V16z"/>
	<path class="st1" d="M282.7,16v7h-0.9v-7H282.7z"/>
	<path class="st1" d="M284.2,23v-7h1l2.3,3.6c0.5,0.7,0.9,1.5,1.3,2.3l0,0c-0.1-0.9-0.1-1.8-0.1-2.9v-3h0.9v7h-0.9l-2.2-3.6
		c-0.5-0.8-0.9-1.6-1.3-2.4l0,0c0,0.9,0.1,1.8,0.1,2.9v3L284.2,23z"/>
	<path class="st1" d="M294.8,19.7H292v2.5h3.1V23h-4v-7h3.8v0.8H292V19h2.8V19.7z"/>
	<path class="st1" d="M304.6,19.4c0,2.4-1.5,3.7-3.3,3.7s-3.2-1.5-3.2-3.6s1.4-3.7,3.3-3.7S304.6,17.3,304.6,19.4z M299.1,19.5
		c0,1.5,0.8,2.9,2.3,2.9s2.3-1.3,2.3-2.9c0-1.4-0.7-2.9-2.3-2.9S299.1,18,299.1,19.5z"/>
	<path class="st1" d="M305.8,16h3.8v0.8h-2.9v2.3h2.7v0.8h-2.7V23h-0.9V16z"/>
	<path class="st1" d="M313,22c0.5,0.3,1.1,0.5,1.6,0.5c0.9,0,1.5-0.5,1.5-1.2s-0.4-1-1.3-1.4c-1.2-0.4-1.9-1-1.9-2
		c0-1.1,1-2,2.1-1.9c0.1,0,0.2,0,0.2,0c0.5,0,1.1,0.1,1.6,0.3l-0.2,0.8c-0.4-0.2-0.9-0.3-1.3-0.3c-1,0-1.3,0.6-1.3,1.1
		c0,0.7,0.4,1,1.4,1.4c1.2,0.5,1.8,1,1.8,2.1s-0.8,2-2.5,2c-0.6,0-1.3-0.1-1.8-0.5L313,22z"/>
	<path class="st1" d="M319.2,16v7h-0.9v-7H319.2z"/>
	<path class="st1" d="M326.2,22.7c-0.7,0.2-1.4,0.4-2.2,0.4c-1.8,0.2-3.5-1.1-3.6-3c0-0.2,0-0.4,0-0.6c-0.1-2,1.5-3.6,3.4-3.7
		c0.1,0,0.3,0,0.4,0c0.6,0,1.2,0.1,1.8,0.3l-0.2,0.8c-0.5-0.2-1-0.3-1.6-0.3c-1.5-0.1-2.7,1-2.9,2.4c0,0.1,0,0.3,0,0.4
		c-0.2,1.4,0.9,2.7,2.3,2.9c0.1,0,0.3,0,0.4,0c0.4,0,0.8,0,1.2-0.2V20h-1.4v-0.7h2.3L326.2,22.7z"/>
	<path class="st1" d="M328.5,16v3h3.5v-3h0.9v7H332v-3.3h-3.4V23h-0.9v-7H328.5z"/>
	<path class="st1" d="M335.8,16.7h-2.2V16h5.2v0.8h-2.2V23h-0.9L335.8,16.7z"/>
	<path class="st1" d="M342.7,23l-1.8-7.1h1l0.8,3.6c0.2,0.9,0.4,1.8,0.5,2.5l0,0c0.1-0.7,0.3-1.5,0.6-2.5l0.9-3.6h1l0.9,3.6
		c0.2,0.8,0.4,1.7,0.5,2.4l0,0c0.1-0.8,0.3-1.6,0.6-2.5l0.9-3.6h0.9l-2,7.1h-1l-0.9-3.7c-0.2-0.8-0.4-1.5-0.5-2.3l0,0
		c-0.1,0.8-0.3,1.6-0.5,2.3l-1,3.7L342.7,23z"/>
	<path class="st1" d="M351.3,16v3h3.4v-3h0.9v7h-0.9v-3.3h-3.4V23h-0.9v-7H351.3z"/>
	<path class="st1" d="M360.9,19.7h-2.8v2.5h3.1V23h-4v-7h3.8v0.8h-2.9V19h2.8V19.7z"/>
	<path class="st1" d="M362.4,23v-7h1l2.3,3.6c0.5,0.7,0.9,1.5,1.3,2.3l0,0c-0.1-0.9-0.1-1.8-0.1-2.9v-3h0.9v7h-0.9l-2.2-3.6
		c-0.5-0.8-0.9-1.6-1.3-2.4l0,0c0,0.9,0.1,1.8,0.1,2.9v3L362.4,23z"/>
	<path class="st1" d="M371.5,16h3.8v0.8h-2.9v2.3h2.7v0.8h-2.7V23h-0.9V16z"/>
	<path class="st1" d="M377.6,16v7h-0.9v-7H377.6z"/>
	<path class="st1" d="M379.2,16c0.6-0.1,1.2-0.1,1.8-0.1c0.7-0.1,1.5,0.1,2,0.6c0.4,0.3,0.6,0.8,0.6,1.3c0,0.8-0.5,1.6-1.3,1.8l0,0
		c0.6,0.3,0.9,0.8,1,1.4c0.1,0.7,0.3,1.3,0.5,1.9h-0.9c-0.2-0.5-0.4-1.1-0.5-1.7c-0.2-1-0.6-1.3-1.4-1.4h-1V23h-0.9L379.2,16z
		 M380.1,19.3h0.9c1,0,1.6-0.5,1.6-1.3s-0.6-1.3-1.6-1.3c-0.3,0-0.6,0-0.9,0.1V19.3z"/>
	<path class="st1" d="M385.7,16v7h-0.9v-7H385.7z"/>
	<path class="st1" d="M387.3,23v-7h1l2.3,3.6c0.5,0.7,0.9,1.5,1.3,2.3l0,0c-0.1-0.9-0.1-1.8-0.1-2.9v-3h0.9v7h-0.9l-2.2-3.6
		c-0.5-0.8-0.9-1.6-1.3-2.4l0,0c0,0.9,0.1,1.8,0.1,2.9v3L387.3,23z"/>
	<path class="st1" d="M399.6,22.7c-0.7,0.2-1.4,0.4-2.2,0.4c-1.8,0.2-3.4-1.1-3.6-3c0-0.2,0-0.4,0-0.6c-0.1-2,1.5-3.6,3.4-3.7
		c0.1,0,0.3,0,0.4,0c0.6,0,1.2,0.1,1.8,0.3l-0.2,0.8c-0.5-0.2-1-0.3-1.6-0.3c-1.5-0.1-2.7,1-2.9,2.5c0,0.1,0,0.3,0,0.4
		c-0.1,1.4,0.9,2.7,2.3,2.9c0.1,0,0.3,0,0.4,0c0.4,0,0.8,0,1.2-0.2V20h-1.4v-0.7h2.3L399.6,22.7z"/>
</g>
<path id="ch62zkNLP" class="st0" d="M218.2,168.9c0,10.2-8.3,18.4-18.4,18.4s-18.4-8.3-18.4-18.4c0-10.2,8.3-18.4,18.4-18.4
	S218.2,158.7,218.2,168.9L218.2,168.9z"/>
<path id="ch62zkNLP-2" class="st0" d="M117.8,156.1c0,10.2-8.3,18.4-18.4,18.4S81,166.3,81,156.1s8.3-18.4,18.4-18.4
	C109.6,137.7,117.8,145.9,117.8,156.1L117.8,156.1z"/>
<path id="c9c5ZKLty-2" class="st0" d="M388,168.9c0,10.2-8.3,18.4-18.4,18.4c-10.2,0-18.4-8.3-18.4-18.4c0-10.2,8.3-18.4,18.4-18.4
	C379.7,150.4,388,158.7,388,168.9C388,168.8,388,168.8,388,168.9z"/>
<path id="ch62zkNLP-3" class="st0" d="M332.5,168.9c0,10.2-8.3,18.4-18.4,18.4c-10.2,0-18.4-8.3-18.4-18.4
	c0-10.2,8.3-18.4,18.4-18.4l0,0C324.2,150.4,332.5,158.7,332.5,168.9z"/>
<path id="c9c5ZKLty-3" class="st0" d="M443.5,168.9c0,10.2-8.3,18.4-18.4,18.4c-10.2,0-18.4-8.3-18.4-18.4
	c0-10.2,8.3-18.4,18.4-18.4l0,0C435.2,150.4,443.5,158.7,443.5,168.9z"/>
<path id="c9c5ZKLty-4" class="st0" d="M275.4,57.4c0,10.2-8.2,18.4-18.4,18.4c-10.2,0-18.4-8.2-18.4-18.4S246.8,39,257,39l0,0
	C267.1,39,275.4,47.3,275.4,57.4z"/>
<path id="ch62zkNLP-4" class="st0" d="M219.9,57.4c0,10.2-8.2,18.4-18.4,18.4s-18.4-8.2-18.4-18.4S191.3,39,201.5,39l0,0
	C211.6,39,219.9,47.3,219.9,57.4z"/>
<path id="c9c5ZKLty-5" class="st0" d="M389.6,57.4c0,10.2-8.2,18.4-18.4,18.4c-10.2,0-18.4-8.2-18.4-18.4S361,39,371.2,39l0,0
	C381.4,39,389.6,47.3,389.6,57.4z"/>
<path id="ch62zkNLP-5" class="st0" d="M334.2,57.4c0,10.2-8.2,18.4-18.4,18.4c-10.2,0-18.4-8.2-18.4-18.4S305.5,39,315.7,39l0,0
	C325.9,39,334.1,47.3,334.2,57.4z"/>
<path id="c9c5ZKLty-6" class="st0" d="M445.1,57.4c0,10.2-8.2,18.4-18.4,18.4c-10.2,0-18.4-8.2-18.4-18.4S416.5,39,426.7,39l0,0
	C436.9,39,445.1,47.3,445.1,57.4z"/>
</svg>
